Coordinates
version=1
nRows=13
nColumns=36
inDegrees=yes

Units are S.I. units (second, meters, Newtons, ...)
If the header above contains a line with 'inDegrees', this indicates whether rotational values are in degrees (yes) or radians (no).

endheader
time	pelvis_tilt	pelvis_list	pelvis_rotation	pelvis_tx	pelvis_ty	pelvis_tz	hip_flexion_r	hip_adduction_r	hip_rotation_r	knee_angle_r	knee_angle_r_beta	ankle_angle_r	subtalar_angle_r	mtp_angle_r	hip_flexion_l	hip_adduction_l	hip_rotation_l	knee_angle_l	knee_angle_l_beta	ankle_angle_l	subtalar_angle_l	mtp_angle_l	lumbar_extension	lumbar_bending	lumbar_rotation	arm_flex_r	arm_add_r	arm_rot_r	elbow_flex_r	pro_sup_r	arm_flex_l	arm_add_l	arm_rot_l	elbow_flex_l	pro_sup_l
      0.00000000	     -9.39941684	     -1.79564952	     -2.71480183	      0.63423543	      1.29132685	     -0.20240683	      6.50806806	     -0.77447974	    -13.73547524	      5.06820179	      0.08845681	    -22.34238815	    -18.25736208	     -5.42536958	      0.38403486	     -5.98108028	    -11.37559917	      4.18665898	      0.07307098	    -10.96995251	     -3.67712599	     -5.42536958	     -1.66267886	      3.17322838	     -3.28810920	    -11.41658122	    -13.95188011	     11.63656972	     24.78711478	     67.00177145	    -22.29267200	    -20.13825711	     14.13255897	     33.30909189	     58.86468586
      0.01666670	     -9.61842922	     -1.39417451	     -2.89666260	      0.63452178	      1.29314863	     -0.20312587	      7.68856369	     -1.40213660	    -13.84443141	      5.68318507	      0.09919029	    -22.30065533	    -14.03504303	     -5.69484826	      1.08650081	     -5.40531640	    -10.99385275	      3.51117379	      0.06128154	    -12.09959163	     -2.32958054	     -5.69484826	     -2.06135917	      3.25065352	     -3.60136760	     -9.91370353	    -13.14919840	     12.41859758	     20.70640996	     69.80768452	    -22.37364469	    -19.22641085	      6.74088103	     32.73352347	     58.59661972
      0.03333330	     -9.37577582	     -1.58553780	     -3.14325846	      0.63042344	      1.29434743	     -0.20550617	      8.36604989	     -1.33137332	    -14.41157700	      5.44902041	      0.09510335	    -21.99325770	    -14.23445896	     -5.75838020	      1.04105279	     -5.69701682	    -11.03385348	      2.96147085	      0.05168742	    -12.98036941	     -2.72609792	     -5.75838020	     -3.08192635	      3.81902038	     -3.00926746	    -10.16322307	    -14.25046220	     14.72334542	     21.01784761	     70.43249662	    -22.32608827	    -21.21038931	      8.93943995	     35.68207740	     59.69746745
      0.05000000	     -8.96100416	     -1.54877802	     -2.90624269	      0.63051745	      1.29238246	     -0.20593474	      8.43071209	     -1.61828925	    -14.62441759	      4.65893980	      0.08131384	    -22.60859730	    -13.55696642	     -5.87402642	      0.83704865	     -5.42611071	    -10.87430903	      2.43887977	      0.04256648	    -14.00133516	     -4.38989230	     -5.87402642	     -4.03829800	      4.15319009	     -3.21901561	     -9.89881450	    -15.43861019	     19.35561484	     21.71814153	     70.64676992	    -21.99672286	    -23.15438359	     13.39310218	     37.31915528	     61.36182422
      0.06666670	     -9.01573376	     -1.62735158	     -3.07759618	      0.62904615	      1.27905809	     -0.20415775	      9.07469239	     -1.64732414	    -14.58163581	      3.93787425	      0.06872887	    -23.51390155	    -13.97875179	     -6.20343094	      1.26563189	     -5.50572948	    -11.04979503	      1.70708249	      0.02979421	    -15.52230749	     -5.95580965	     -6.20343094	     -4.83831337	      4.79495270	     -3.17170579	     -9.18022671	    -16.76541026	     23.96329351	     23.08482983	     68.79602494	    -22.23644360	    -24.97177245	     15.47492819	     40.76490710	     62.02373084
      0.08333330	     -8.86227123	     -1.43538414	     -2.64063707	      0.62936622	      1.27481325	     -0.20455372	      9.23819354	     -1.86152596	    -14.21880880	      2.92440292	      0.05104046	    -23.30324301	    -13.58302579	     -6.36662786	      1.65004873	     -5.28874114	    -10.87653022	      1.31210464	      0.02290055	    -17.00340767	     -7.35658936	     -6.36662786	     -5.77609735	      4.71972025	     -3.34142159	     -8.34025995	    -17.07565058	     26.35001860	     24.23001559	     67.39754907	    -22.33643473	    -26.41985378	     16.28214025	     43.84281891	     61.81046261
      0.10000000	     -9.01124104	     -1.39787108	     -2.24691443	      0.63052563	      1.26586707	     -0.20513802	      9.70800547	     -1.92445899	    -13.82899296	      1.98874920	      0.03471022	    -23.01784169	    -12.46264507	     -6.62968829	      2.47111415	     -5.28414285	    -10.55148685	      0.99515188	      0.01736868	    -18.06342209	     -7.86342133	     -6.62968829	     -6.35606406	      5.01339738	     -3.73809470	     -7.27794526	    -17.45474989	     28.84318546	     24.69295301	     66.04490907	    -21.80777398	    -27.24083170	     16.07256454	     45.62070943	     61.06703363
      0.11666670	     -9.14995947	     -1.58383832	     -2.06069217	      0.62884534	      1.24403242	     -0.20384659	     10.01113263	     -1.63592475	    -13.10127576	      1.34317445	      0.02344282	    -23.16820694	    -11.86385550	     -6.83179159	      3.30571498	     -5.61647854	    -10.49777853	      0.74722165	      0.01304148	    -18.57898882	     -7.98781313	     -6.83179159	     -6.80337372	      5.36375407	     -3.72426237	     -7.41820055	    -17.85317176	     28.96090658	     26.60399509	     65.23630604	    -21.97760733	    -28.09987251	     15.35707319	     48.15369472	     60.77945263
      0.13333330	     -9.15571895	     -1.40329173	     -1.86425394	      0.62286836	      1.23535818	     -0.20959369	     10.24385441	     -1.95715871	    -12.69294023	      1.03709197	      0.01810067	    -23.74120027	    -11.52460304	     -6.90601585	      4.34821832	     -5.24990386	    -10.16179119	      0.73353169	      0.01280254	    -19.88691899	     -9.27297377	     -6.90601585	     -7.78701845	      5.48236758	     -3.49250153	     -6.50064532	    -18.11109326	     29.42980319	     26.93295746	     64.88213864	    -20.82268286	    -28.41727013	     14.95656743	     49.55092949	     60.62565700
      0.15000000	     -8.95458387	     -1.27846273	     -1.74126437	      0.62275104	      1.20647460	     -0.20787835	     10.28552389	     -2.09137209	    -11.85895709	      1.00053906	      0.01746270	    -23.84937238	    -11.00724873	     -7.00093072	      5.06743694	     -5.02154978	    -10.08309159	      0.92708968	      0.01618077	    -20.63670763	    -10.45611540	     -7.00093072	     -8.69791181	      5.63209055	     -3.73684203	     -5.98140390	    -18.34453127	     29.93645416	     27.50272102	     64.61575073	    -20.82676788	    -29.09672834	     14.65736661	     51.43588437	     60.59267028
      0.16666670	     -8.90848584	     -1.27193737	     -1.91466039	      0.62278791	      1.18007759	     -0.20084630	     10.45824104	     -1.87544597	    -11.08883606	      1.23078900	      0.02148132	    -24.30379717	    -10.90661374	     -7.06294963	      5.72620624	     -5.12208926	    -10.27301724	      0.99095461	      0.01729542	    -21.43609683	    -11.26623988	     -7.06294963	     -9.23818792	      5.81658346	     -4.30697159	     -5.60686262	    -18.26654349	     29.70364959	     28.45249503	     64.37690103	    -21.15407029	    -29.66483838	     14.02385235	     52.56110395	     60.58298543
      0.18333330	     -9.08168980	     -1.54686657	     -2.14152997	      0.62240957	      1.15580866	     -0.19938232	     10.82786213	     -1.30918283	    -10.44136508	      1.49633079	      0.02611590	    -24.70163027	    -10.99295641	     -7.14443437	      6.37332750	     -5.54255605	    -10.36785901	      1.00082590	      0.01746771	    -21.34821854	    -11.50046469	     -7.14443437	     -9.37943086	      6.27023283	     -5.19508886	     -5.17822371	    -18.23208593	     28.89623907	     29.33049508	     64.90564306	    -23.11521340	    -29.65018438	     10.78410220	     55.85425783	     61.25875024
      0.20000000	     -9.25426117	     -1.85898557	     -2.24889921	      0.62174773	      1.12667551	     -0.19802049	     11.20294974	     -0.59058856	    -10.06645655	      1.78210200	      0.03110355	    -24.75405743	    -11.22013855	     -7.18510605	      6.83999780	     -6.04542038	    -10.58671341	      1.06283273	      0.01854993	    -20.52508171	    -11.14458394	     -7.18510605	     -9.36881246	      6.88229009	     -5.63923416	     -5.12797706	    -18.21474721	     28.10498945	     30.69323352	     64.76114441	    -23.69348631	    -29.91972603	     10.17515998	     57.34899600	     61.48453698
